HIERARCHY
ROOT Hips
{
	OFFSET 0.0000 0.0000 0.0000
	CHANNELS 6 Xposition Yposition Zposition Zrotation Xrotation Yrotation
	JOINT Ab
	{
		OFFSET -0.0000 8.0846 -0.0000
		CHANNELS 3 Zrotation Xrotation Yrotation
		JOINT Chest
		{
			OFFSET -0.0000 25.0068 -0.0000
			CHANNELS 3 Zrotation Xrotation Yrotation
			JOINT Neck
			{
				OFFSET -0.0000 25.0068 0.0000
				CHANNELS 3 Zrotation Xrotation Yrotation
				JOINT Head
				{
					OFFSET -0.0000 10.7556 0.0000
					CHANNELS 3 Zrotation Xrotation Yrotation
					End Site
					{
						OFFSET -0.0000 16.6222 0.0000
					}
				}
			}
			JOINT LeftCollar
			{
				OFFSET -0.0000 25.0068 0.0000
				CHANNELS 3 Zrotation Xrotation Yrotation
				JOINT LeftShoulder
				{
					OFFSET 19.5556 -0.0000 0.0000
					CHANNELS 3 Zrotation Xrotation Yrotation
					JOINT LeftElbow
					{
						OFFSET 27.1828 0.0000 0.0000
						CHANNELS 3 Zrotation Xrotation Yrotation
						JOINT LeftWrist
						{
							OFFSET 23.3157 0.0000 0.0000
							CHANNELS 3 Zrotation Xrotation Yrotation
							End Site
							{
								OFFSET 0.0000 -14.6667 0.0000
							}
						}
					}
				}
			}
			JOINT RightCollar
			{
				OFFSET -0.0000 25.0068 0.0000
				CHANNELS 3 Zrotation Xrotation Yrotation
				JOINT RightShoulder
				{
					OFFSET -19.5556 0.0000 0.0000
					CHANNELS 3 Zrotation Xrotation Yrotation
					JOINT RightElbow
					{
						OFFSET -27.1828 0.0000 0.0000
						CHANNELS 3 Zrotation Xrotation Yrotation
						JOINT RightWrist
						{
							OFFSET -23.3157 0.0000 0.0000
							CHANNELS 3 Zrotation Xrotation Yrotation
							End Site
							{
								OFFSET -0.0000 -14.6667 0.0000
							}
						}
					}
				}
			}
		}
	}
	JOINT LeftHip
	{
		OFFSET 11.7333 0.0000 0.0000
		CHANNELS 3 Zrotation Xrotation Yrotation
		JOINT LeftKnee
		{
			OFFSET -0.0000 -40.8688 0.0000
			CHANNELS 3 Zrotation Xrotation Yrotation
			JOINT LeftAnkle
			{
				OFFSET -0.0000 -44.4337 0.0000
				CHANNELS 3 Zrotation Xrotation Yrotation
				End Site
				{
					OFFSET -0.0000 -4.8889 16.6222
				}
			}
		}
	}
	JOINT RightHip
	{
		OFFSET -11.7333 0.0000 0.0000
		CHANNELS 3 Zrotation Xrotation Yrotation
		JOINT RightKnee
		{
			OFFSET -0.0000 -40.8688 0.0000
			CHANNELS 3 Zrotation Xrotation Yrotation
			JOINT RightAnkle
			{
				OFFSET -0.0000 -44.4337 0.0000
				CHANNELS 3 Zrotation Xrotation Yrotation
				End Site
				{
					OFFSET -0.0000 -4.8889 16.6222
				}
			}
		}
	}
}
MOTION
Frames: 20
Frame Time: 0.010000
-4.0806 88.5279 188.0469 2.3207 0.5811 174.5383 1.4402 359.5015 358.0815 359.4363 11.1501 358.1323 1.2621 344.7852 1.7232 2.2662 10.3284 1.3419 338.7095 358.5187 7.8095 300.7595 30.0491 356.0840 14.6145 354.9575 322.2431 84.2674 1.1551 340.5285 22.2728 358.9615 354.7036 60.2264 45.1193 6.4233 337.4089 354.2087 28.3501 275.8687 352.5613 16.1670 2.7287 359.0666 356.9104 359.1235 9.7355 357.5417 357.3537 352.2519 22.2298 0.1209 352.5214 0.4129 358.7442 20.0515 8.2851 358.0010 344.3478 337.3759 
-4.0849 88.5299 188.0340 2.3187 0.5931 174.5487 1.4257 359.5350 358.0833 359.4426 11.1263 358.1328 1.2173 344.7701 1.6967 2.2958 10.3769 1.3177 338.7011 358.5392 7.8361 300.7747 30.0432 356.0717 14.5768 354.9854 322.2872 84.2465 1.0932 340.4775 22.2820 358.9691 354.7177 60.2168 45.1139 6.4253 337.6235 354.2822 28.5865 275.5794 353.2492 17.1242 2.7233 359.1011 356.7503 359.0975 9.7046 357.6458 357.3873 352.2543 22.2626 0.1155 352.5486 0.4078 358.7431 20.0438 8.2714 357.9565 344.3609 337.3909 
-4.0914 88.5309 188.0269 2.3118 0.5687 174.5684 1.4092 359.5253 358.0777 359.4597 11.1216 358.1259 1.1288 344.7032 1.6448 2.3417 10.4868 1.2684 338.7046 358.5238 7.8043 300.7307 29.9057 356.1215 14.5384 354.9882 322.2156 84.2576 1.1085 340.4015 22.2781 358.9485 354.7385 60.2389 45.1233 6.3998 337.4296 354.2057 28.3998 275.8201 352.7496 16.4355 2.7175 359.0618 356.6997 359.0812 9.7369 357.6697 357.4168 352.2309 22.2652 0.1023 352.5361 0.4109 358.7500 20.0370 8.2491 357.9581 344.3370 337.4059 
-4.0981 88.5316 188.0159 2.3050 0.5582 174.5850 1.3946 359.5268 358.0717 359.4628 11.1197 358.1187 1.0741 344.6610 1.6166 2.3789 10.5663 1.2440 338.7066 358.5380 7.8263 300.7272 29.9067 356.1172 14.5513 355.0039 322.2243 84.2101 1.0947 340.4039 22.2831 358.9641 354.7671 60.2329 45.0887 6.3977 337.6652 354.2742 28.6135 275.5295 353.3386 17.3194 2.7129 359.0435 356.6518 359.0566 9.7611 357.6802 357.4001 352.2076 22.2917 0.0863 352.5383 0.4202 358.7579 20.0356 8.2574 357.9524 344.3098 337.3773 
-4.1053 88.5324 188.0089 2.2961 0.5358 174.6127 1.3757 359.5299 358.0652 359.4651 11.0988 358.1121 0.9737 344.6187 1.5572 2.4727 10.6567 1.1851 338.7115 358.5329 7.8355 300.7135 29.8790 356.1313 14.5595 354.9936 322.1940 84.1906 1.1170 340.3655 22.2875 358.9591 354.7821 60.2325 45.0915 6.4015 337.6801 354.2567 28.6256 275.3973 353.4993 17.4058 2.7047 358.9918 356.6216 359.0335 9.8090 357.7052 357.4347 352.1737 22.2927 0.0658 352.5313 0.4323 358.7772 20.0248 8.2354 357.9504 344.2871 337.3593 
-4.1156 88.5337 187.9995 2.2842 0.5204 174.6351 1.3545 359.5373 358.0694 359.4612 11.0857 358.1171 0.8951 344.5674 1.5036 2.5452 10.7583 1.1326 338.7173 358.5239 7.8289 300.6921 29.8264 356.1677 14.5529 354.9821 322.1480 84.1556 1.1360 340.3192 22.2913 358.9714 354.7979 60.2260 45.0894 6.4107 337.6943 354.2527 28.6187 275.3829 353.5336 17.4552 2.6947 358.9675 356.6088 359.0157 9.8262 357.6636 357.5017 352.1611 22.3341 0.0407 352.5313 0.4327 358.7901 20.0089 8.2116 357.8755 344.2943 337.3582 
-4.1276 88.5351 187.9910 2.2670 0.4985 174.6614 1.3253 359.5446 358.0774 359.4601 11.0638 358.1256 0.8194 344.5168 1.4402 2.5962 10.8652 1.0714 338.7189 358.5261 7.8038 300.6705 29.7195 356.2152 14.4879 355.0063 322.1037 84.1654 1.1349 340.2522 22.2959 358.9644 354.7876 60.1938 45.1271 6.4467 337.6905 354.2426 28.5997 275.3495 353.5614 17.4590 2.6777 358.9114 356.5676 359.0069 9.9018 357.5837 357.4816 352.1065 22.3848 0.0069 352.5254 0.4292 358.8054 19.9970 8.1923 357.9504 344.2618 337.3865 
-4.1414 88.5376 187.9831 2.2479 0.4771 174.6944 1.2903 359.5592 358.0849 359.4666 11.0343 358.1321 0.7046 344.4639 1.3632 2.6994 10.9781 0.9938 338.7133 358.5283 7.7732 300.6523 29.6132 356.2597 14.4132 355.0185 322.0619 84.2294 1.1260 340.1856 22.3031 358.9630 354.7720 60.1439 45.1541 6.4927 337.7281 354.2610 28.5873 275.2345 353.6720 17.4756 2.6619 358.8560 356.5355 358.9774 9.9618 357.5505 357.5126 352.0732 22.4221 359.9658 352.5231 0.4319 358.8317 19.9843 8.1674 358.1044 344.1980 337.4124 
-4.1597 88.5405 187.9763 2.2281 0.4559 174.7268 1.2758 359.5801 358.0778 359.4500 11.0032 358.1265 0.5568 344.3999 1.2840 2.8538 11.0987 0.9149 338.7190 358.5408 7.7484 300.6252 29.4705 356.2955 14.3121 355.0491 322.0273 84.3037 1.0894 340.0841 22.3145 358.9616 354.7680 60.0788 45.1675 6.5430 337.7257 354.2626 28.5343 275.5969 353.3847 17.4519 2.6459 358.7919 356.5471 358.9301 10.0219 357.5490 357.6000 352.0655 22.4511 359.9203 352.5262 0.4493 358.8657 19.9562 8.1031 358.1658 344.1547 337.4013 
-4.1824 88.5433 187.9689 2.2027 0.4193 174.7723 1.2649 359.5845 358.0659 359.4193 10.9692 358.1176 0.4202 344.3327 1.2128 2.9937 11.2346 0.8452 338.7334 358.5436 7.7088 300.5681 29.2540 356.3804 14.2123 355.0831 321.9210 84.3519 1.0888 339.9268 22.3259 358.9805 354.7740 60.0024 45.1953 6.6058 337.8281 354.2807 28.5434 275.2848 353.6846 17.5394 2.6169 358.6953 356.4956 358.9200 10.1332 357.4528 357.6049 351.9992 22.5037 359.8626 352.5187 0.4579 358.8927 19.9635 7.9989 358.3068 344.0220 337.4155 
-4.2128 88.5443 187.9557 2.1689 0.4008 174.8246 1.2826 359.6159 358.0357 359.3354 10.9049 358.0945 0.2250 344.3446 1.0945 3.1959 11.2652 0.7527 338.7424 358.5516 7.7060 300.5530 29.1494 356.4495 14.1561 355.0974 321.8458 84.3818 1.1060 339.8933 22.3585 358.9734 354.8160 59.9662 45.2368 6.5958 337.8108 354.2784 28.5470 275.3977 353.6676 17.5728 2.5677 358.6320 356.4688 358.9150 10.2187 357.3830 357.6298 351.9502 22.5291 359.7876 352.5346 0.4325 358.9250 19.9271 7.9247 358.2704 344.0637 337.5585 
-4.2416 88.5476 187.9490 2.1396 0.3549 174.8752 1.2716 359.6219 358.0247 359.3057 10.8605 358.0879 0.0178 344.2262 1.0162 3.4010 11.4753 0.6488 338.7413 358.5515 7.7168 300.5204 29.0697 356.5024 14.1632 355.0729 321.7356 84.3826 1.1633 340.0136 22.3620 359.0004 354.8764 59.9380 45.2142 6.5969 337.8744 354.2896 28.5346 275.4587 353.6228 17.6642 2.5331 358.5233 356.4329 358.8838 10.3183 357.3463 357.6434 351.8972 22.5700 359.7218 352.5162 0.4441 358.9699 19.8995 7.8270 358.4440 343.9433 337.5497 
-4.2760 88.5493 187.9406 2.1106 0.3141 174.9383 1.2542 359.6302 358.0212 359.2790 10.8238 358.0867 359.7953 344.0961 0.8889 3.5914 11.7135 0.5317 338.7259 358.5470 7.7947 300.5538 29.3168 356.4449 14.3100 355.0086 321.8217 84.3501 1.0595 340.2007 22.3640 358.9859 354.8886 59.8576 45.2752 6.6491 337.8489 354.3008 28.5289 275.5228 353.5750 17.6641 2.4940 358.4240 356.3885 358.8593 10.4152 357.2831 357.6415 351.8383 22.6098 359.6568 352.5128 0.4347 358.9885 19.8354 7.8637 359.1509 343.4610 337.1922 
-4.3151 88.5517 187.9277 2.0774 0.2697 174.9996 1.2077 359.6287 358.0509 359.2738 10.8081 358.1164 359.5719 343.8994 0.7371 3.7880 12.0317 0.3805 338.7129 358.5323 7.7692 300.5400 29.2271 356.5002 14.2782 355.0331 321.7510 84.4280 1.0303 340.2084 22.3667 358.9686 354.8489 59.7233 45.3265 6.7604 337.9260 354.3188 28.5495 275.3454 353.8209 17.7574 2.4474 358.3015 356.4936 358.8592 10.5546 357.0807 357.7029 351.7709 22.6417 359.5857 352.5090 0.4464 358.9838 19.7136 8.1373 359.1287 343.4407 336.8828 
-4.3587 88.5539 187.9102 2.0462 0.2370 175.0620 1.1743 359.6346 358.0633 359.2686 10.7904 358.1289 359.2869 343.7390 0.5738 4.0579 12.3152 0.2197 338.6900 358.5282 7.7981 300.5667 29.4209 356.4953 14.4105 354.9542 321.6809 84.4337 1.1910 340.6315 22.3673 358.9694 354.8247 59.6058 45.3641 6.8447 337.9585 354.3427 28.5095 275.4878 353.6515 17.8125 2.3950 358.2014 356.5275 358.8546 10.6813 356.9569 357.7886 351.7161 22.6764 359.5155 352.5150 0.4392 358.9168 19.7152 8.5152 359.3976 343.5428 336.7303 
-4.4070 88.5554 187.8958 2.0168 0.1907 175.1306 1.1681 359.6429 358.0613 359.2298 10.7489 358.1308 359.1063 343.6587 0.4737 4.2312 12.4686 0.1236 338.6759 358.5296 7.8228 300.5750 29.4317 356.5442 14.4724 354.9169 321.4186 84.4359 1.4987 341.0420 22.3811 358.9806 354.8223 59.4687 45.4274 6.9370 337.9935 354.3615 28.4505 275.6192 353.4076 17.8449 2.3470 358.1066 356.4443 358.8203 10.7592 356.9517 357.8519 351.6838 22.7229 359.4491 352.4944 0.4062 358.8431 19.7025 8.9700 359.4074 343.6653 336.5546 
-4.4578 88.5575 187.8840 1.9912 0.1268 175.2017 1.1650 359.6446 358.0625 359.1888 10.6931 358.1355 359.0357 343.6285 0.4279 4.2901 12.5337 0.0811 338.6674 358.5151 7.8494 300.5583 29.4132 356.6226 14.4929 354.8942 321.2929 84.4764 1.5072 341.1276 22.3947 358.9883 354.8351 59.3311 45.4742 7.0240 338.0439 354.3561 28.4529 275.6304 353.4186 17.9207 2.3058 358.0044 356.2946 358.7694 10.8163 357.0102 357.8524 351.6459 22.7590 359.3879 352.4542 0.3865 358.8269 19.6454 9.1650 359.3191 343.6301 336.4162 
-4.5117 88.5609 187.8665 1.9675 0.0770 175.2604 1.1433 359.6568 358.0862 359.1698 10.6472 358.1612 358.9903 343.5896 0.3868 4.3118 12.5976 0.0434 338.6409 358.4929 8.0198 300.6247 30.0576 356.5197 14.8810 354.6855 321.5627 84.3890 1.3079 341.6013 22.3917 358.9759 354.8592 59.2462 45.5083 7.0634 337.9562 354.3153 28.4849 275.9913 353.4107 18.1837 2.2553 357.9341 356.1298 358.7288 10.8559 357.1134 357.8456 351.6068 22.7629 359.3284 352.4300 0.4007 358.8392 19.6345 9.0651 359.0124 343.8075 336.5672 
-4.5705 88.5655 187.8488 1.9473 0.0231 175.3158 1.1250 359.6675 358.1207 359.1476 10.6033 358.1980 358.9546 343.5345 0.3462 4.3101 12.7073 0.0002 338.6185 358.4912 8.0084 300.6261 30.0361 356.6061 14.8735 354.7524 321.5977 84.5796 1.1664 341.7527 22.3893 358.9826 354.8670 59.1350 45.5535 7.1365 337.9822 354.3270 28.4847 276.1040 353.4077 18.3897 2.2045 357.8492 356.0837 358.7154 10.9135 357.0758 357.8958 351.5649 22.7868 359.2695 352.4053 0.4372 358.8601 19.6141 8.9933 358.8938 343.8610 336.5848 
-4.6368 88.5702 187.8221 1.9265 359.9751 175.3722 1.1284 359.6815 358.1510 359.0891 10.5674 358.2333 358.8816 343.4716 0.2657 4.3805 12.7749 359.9183 338.6184 358.4859 8.0492 300.6296 30.1666 356.5977 14.9460 354.7474 321.7708 84.7856 0.9568 341.9749 22.4099 358.9798 354.8308 58.9635 45.6161 7.2886 338.0299 354.3613 28.4891 276.0267 353.4383 18.5861 2.1446 357.7884 356.0351 358.7013 10.9506 357.0683 357.9781 351.5300 22.8035 359.2056 352.4009 0.4455 358.8737 19.5795 8.8689 358.9687 343.7746 336.6291 
